<svg xmlns="http://www.w3.org/2000/svg" width="96.223" height="33.617" viewBox="0 0 96.223 33.617">
  <g id="Group_5" data-name="Group 5" transform="translate(-913 -71.206)" style="mix-blend-mode: multiply;isolation: isolate">
    <g id="Group_4" data-name="Group 4">
      <path id="Subtraction_3" data-name="Subtraction 3" d="M-2160.3,33.617a2.234,2.234,0,0,1-1.589-.833,6.548,6.548,0,0,0-5.073-2.023c-.173,0-.352,0-.533.013-.279.016-.554.025-.816.025a6.27,6.27,0,0,1-4.87-1.729c-1.129-1.252-1.563-3.205-1.293-5.8a60.813,60.813,0,0,0-.035-9.1c-.071-1.32-.145-2.682-.177-4.01-.036-.9-.087-1.848-.132-2.68-.092-1.7-.186-3.464-.186-5.146a1.891,1.891,0,0,1,2.115-2.115c8.319,0,16.934-.112,24.536-.211,1.3,0,1.9.706,1.9,2.221v.006c.1,6.56.208,13.343.528,20.193.16,2.987.01,5.1-1.231,6.411-1.151,1.214-3.186,1.732-6.806,1.732l-.33,0-.371,0c-1.619,0-3.269.27-4.375,2.226A1.4,1.4,0,0,1-2160.3,33.617Zm-.27-15.967a.123.123,0,0,1,.054.01,22.209,22.209,0,0,1,1.852,1.506c.391.342.795.695,1.216,1.032a.3.3,0,0,1,.053.225.64.64,0,0,0,.053.3c.18.51.35,1.05.5,1.527a17.5,17.5,0,0,0,1.509,3.761,4.189,4.189,0,0,0,2.956,1.619,1.458,1.458,0,0,0,.322-.032c1.152-.209,2.084-1.542,2.833-2.613l.021-.031c.066-.132-.366-.639-.823-1.176l0-.006h0c-.276-.323-.561-.658-.759-.934-.214-.286-.45-.583-.658-.846a19.517,19.517,0,0,1-1.245-1.692,8.2,8.2,0,0,1-.667-1.321,6.065,6.065,0,0,0-.92-1.64,4,4,0,0,1-1.1-2.38,3.359,3.359,0,0,1,1.2-2.38,4.427,4.427,0,0,0,1.269-3.834,8.043,8.043,0,0,0-2.221-4.31,2.8,2.8,0,0,0-1.953-1.173c-.818,0-1.84.6-3.441,1.7-.158.106-.292.213-.422.317s-.265.212-.423.318a3.031,3.031,0,0,1-1.981.821,3.67,3.67,0,0,1-2.25-.927,5.467,5.467,0,0,0-3.13-1.607,2.281,2.281,0,0,0-1.735.867c-1.473,1.657-.233,2.822.965,3.948l.011.01c.169.159.344.323.5.484,1.59,1.7,1.59,3.275,0,4.971a9.337,9.337,0,0,0-1.269,1.48c.393.557.843,1.1,1.277,1.621.965,1.162,1.8,2.164,1.579,2.82a5.362,5.362,0,0,0,0,4.192c.6,1.128,1.877,1.947,4.015,2.576a7.36,7.36,0,0,0,2.216.49,2.411,2.411,0,0,0,2.014-1.018,1.849,1.849,0,0,0,.435-1.37c-.112-.635-.738-1.071-1.344-1.493l-.006,0c-.191-.133-.389-.271-.565-.412-.049-.024-.109-.049-.172-.074-.219-.088-.462-.187-.462-.349l-.087-.373v-.005a24.039,24.039,0,0,1-.653-3.64C-2161.993,18.3-2160.875,17.651-2160.567,17.651Zm-.169-3.427a.888.888,0,0,1-.3-.052c-.562-.241-.936-1.019-1.184-1.534a3.523,3.523,0,0,0-.192-.369c.083-.458.138-.9.19-1.333.2-1.681.366-3.006,2.079-3.006.06,0,.114,0,.164,0,.617.1,1.582,1.549,1.692,2.538a4.027,4.027,0,0,1-1.051,2.955A2.057,2.057,0,0,1-2160.736,14.224Z" transform="translate(3088 71.206)"/>
    </g>
    <g id="Group_2" data-name="Group 2" transform="translate(2)">
      <path id="Subtraction_2" data-name="Subtraction 2" d="M-2162.3,33.617a2.234,2.234,0,0,1-1.589-.833,5.981,5.981,0,0,0-4.775-2.054c-.3,0-.613.015-.935.044-.279.016-.553.025-.816.025a6.231,6.231,0,0,1-4.785-1.677c-1.153-1.253-1.6-3.168-1.38-5.856a60.884,60.884,0,0,0-.035-9.113c-.071-1.317-.144-2.675-.177-4l0-.056c-.1-2.58-.209-5.248-.209-7.77a1.891,1.891,0,0,1,2.115-2.115c8.32,0,16.935-.112,24.535-.211,1.3,0,1.9.706,1.9,2.221.1,6.565.208,13.349.528,20.2.16,2.987.01,5.1-1.231,6.411-1.151,1.214-3.186,1.732-6.806,1.732l-.33,0-.371,0c-1.619,0-3.27.27-4.375,2.226A1.4,1.4,0,0,1-2162.3,33.617Zm-.339-30.714a2.125,2.125,0,0,0-1.145.269,24.629,24.629,0,0,0-2.747,1.976c-.741.587-1.507,1.193-2.329,1.725a7.822,7.822,0,0,0-3.913,8.566c.071.565.106,1.13.14,1.677a12.779,12.779,0,0,0,.494,3.293c.154.443.293.908.427,1.358.617,2.065,1.256,4.2,3.592,5.41a12.163,12.163,0,0,0,5.414,1.244,12.077,12.077,0,0,0,10.131-5.157,7.274,7.274,0,0,0,.846-4.627,5.543,5.543,0,0,0-2.009-3.833c-1.936-1.29-2.87-1.944-2.95-2.687-.078-.727.662-1.529,2.21-3.13.51-.509.834-.926.763-1.3-.065-.345-.464-.66-1.292-1.022a21.626,21.626,0,0,1-3.377-1.855,26.182,26.182,0,0,0-2.652-1.529A3.438,3.438,0,0,0-2162.636,2.9Zm.76,22.9h0a4.775,4.775,0,0,1-1.481-.212,5.591,5.591,0,0,1-1.1-.559c-.222-.134-.451-.271-.693-.392a5.339,5.339,0,0,0,.443-.531,3.2,3.2,0,0,1,.826-.844,5.331,5.331,0,0,0,2.22-5.288,3.2,3.2,0,0,1,.741-2.538,1.189,1.189,0,0,1,.534-.11,4.537,4.537,0,0,1,2.111.744A5.627,5.627,0,0,1-2155.849,22C-2156.609,24.385-2158.693,25.7-2161.876,25.8Zm-4.865-3.384h0c-.13-.195-.285-.383-.448-.583a3.186,3.186,0,0,1-.82-1.424,25.448,25.448,0,0,1-.119-3.7c.007-.418.013-.85.013-1.275,0-.525-.024-1.058-.046-1.574v-.012a17.964,17.964,0,0,1,.047-3.173,2.837,2.837,0,0,1,1-1.463,6.162,6.162,0,0,0,.692-.758,5.806,5.806,0,0,0,.55.753,2.389,2.389,0,0,1,.719,1.363c0,3.386-.235,7.019-.423,9.938a2.2,2.2,0,0,1-.715,1.342,5.866,5.866,0,0,0-.448.562Zm6.346-10.681h0a3.663,3.663,0,0,1-1.547-1.068c-.172-.16-.366-.34-.569-.518l.035-.053c.62-.929,1.03-1.543,1.445-2.063l1.111,1.111,1.111,1.111c-.156.156-.324.352-.486.542l0,.006C-2159.694,11.265-2160.1,11.739-2160.4,11.739Z" transform="translate(3121.409 71.206)"/>
    </g>
    <g id="Group_3" data-name="Group 3" transform="translate(3)">
      <path id="Subtraction_1" data-name="Subtraction 1" d="M-2163.3,33.617a2.234,2.234,0,0,1-1.589-.833,5.984,5.984,0,0,0-4.776-2.054c-.3,0-.613.015-.935.044-.279.016-.553.025-.815.025a6.229,6.229,0,0,1-4.784-1.677c-1.153-1.253-1.6-3.168-1.38-5.857a60.746,60.746,0,0,0-.035-9.1v-.027c-.07-1.309-.143-2.663-.175-3.983l0-.075c-.1-2.574-.208-5.236-.208-7.752a1.891,1.891,0,0,1,2.115-2.115c8.318,0,16.934-.112,24.535-.211,1.3,0,1.9.706,1.9,2.221V2.23c.1,6.589.21,13.4.529,20.19.16,2.987.01,5.1-1.232,6.412-1.151,1.214-3.186,1.732-6.805,1.732l-.33,0-.372,0c-1.619,0-3.269.27-4.375,2.226A1.4,1.4,0,0,1-2163.3,33.617Zm-10.578-12.045h0a6.089,6.089,0,0,1,.1.607,6.036,6.036,0,0,0,.106.613,5.766,5.766,0,0,0,2.737,3.119,8.487,8.487,0,0,0,4.136,1.275,3.442,3.442,0,0,0,1.481-.29,6.279,6.279,0,0,1,2.6-.618,3.284,3.284,0,0,1,1.418.285,5.171,5.171,0,0,0,2.347.588,4.439,4.439,0,0,0,3.091-1.246,6.746,6.746,0,0,0,1.86-3.668,7.744,7.744,0,0,1,2.009-4.437,2.586,2.586,0,0,0,.677-2.013,2.449,2.449,0,0,0-1.311-1.537,3.315,3.315,0,0,1-1.766-2.092,3.81,3.81,0,0,1,.815-3.01,3.127,3.127,0,0,1,.895-.714,3.391,3.391,0,0,0,.691-.506,5.611,5.611,0,0,0,.657-1.3c.088-.218.187-.466.295-.692-.129-.081-.26-.17-.386-.256l-.011-.008a3.664,3.664,0,0,0-1.189-.623c-1.533-.055-3.092-.055-4.6-.055s-3.067,0-4.6-.055a5.52,5.52,0,0,1-2.855-1,3.172,3.172,0,0,0-1.774-.668,2.085,2.085,0,0,0-1.716,1,7.077,7.077,0,0,0-.667,2.066c-.089.409-.172.794-.286,1.15l.015,0a11.12,11.12,0,0,0,1.889.22c1.551,0,2.225.739,2.327,2.551a7.339,7.339,0,0,1-1.768,4.861l-.242.353c-.594.85-.8,1.464-.641,1.934.146.439.619.776,1.487,1.06a2.545,2.545,0,0,1,1.164,1.443c-.151.713-.577,2.41-1.269,2.773a1.739,1.739,0,0,1-.7.128,2.334,2.334,0,0,1-1.944-.9,12.852,12.852,0,0,1-1.374-4.991,33.732,33.732,0,0,1,.105-7.321c.3-2.652-.924-3.567-2.346-4.626l-.066-.049-.127-.095a1.652,1.652,0,0,0-.948-.368c-.794,0-1.326.894-1.8,1.81a2.416,2.416,0,0,0,.635,3.217,5.526,5.526,0,0,1,1.269,3.1c.158,2.244.138,4.525.119,6.731v.011c-.007.735-.013,1.5-.013,2.243Zm14.73.687a3.686,3.686,0,0,1-2.041-.687,1.647,1.647,0,0,1-.821-1.192,2.425,2.425,0,0,1,.821-1.914c2.285-2.4,2.246-2.435.207-4.463l-.418-.417c-.62-.651-.645-2.964-.211-4.216.283-.988,1.412-1.628,2.319-2.143l.326-.186a.091.091,0,0,1,.042-.01c.207,0,.7.542,1.026.9.083.092.147.161.2.218-.18.755-.283,1.424-.374,2.016l-.009.06c-.013.086-.026.171-.04.254v1.109a12.751,12.751,0,0,0,.211,2,22.125,22.125,0,0,0,.656,2.3l0,.007c.062.191.125.384.188.581a5.766,5.766,0,0,1,.211,3,4.842,4.842,0,0,1-1.269,2.44.55.55,0,0,1-.158.111.553.553,0,0,0-.158.111A1.729,1.729,0,0,1-2159.145,22.259Z" transform="translate(3155.087 71.206)"/>
    </g>
  </g>
</svg>
